<svg id="Layer_1" data-name="Layer 1" xmlns="http://www.w3.org/2000/svg" viewBox="0 0 432 432"><defs><style>.cls-1{fill:#038d9a;}</style></defs><title>ayush</title><path class="cls-1" d="M228.65,368.89v22.46A179.69,179.69,0,0,1,50.32,234.1H73A157.26,157.26,0,0,0,228.65,368.89Z"/><path class="cls-1" d="M26.47,200.4v22.46H15.23a11.23,11.23,0,0,1,0-22.46Z"/><polygon class="cls-1" points="228.65 211.63 206.19 222.86 37.7 222.86 37.7 200.4 206.19 200.4 228.65 211.63"/><path class="cls-1" d="M408.37,211.63V380.12a11.23,11.23,0,0,1-22.46,0V211.63A157.27,157.27,0,0,0,73,189.17H50.33a179.72,179.72,0,0,1,358,22.46Z"/><path class="cls-1" d="M268.53,375.81V391h-3.29l-.08-3a3.06,3.06,0,0,1-.32.3,10.51,10.51,0,0,1-3.18,2.26c-.25.11-.51.21-.77.3a9.24,9.24,0,0,1-3,.5,8.6,8.6,0,0,1-3.09-.49,5.84,5.84,0,0,1-2.11-1.32,5,5,0,0,1-1.21-2,7.31,7.31,0,0,1-.4-2.47,6.26,6.26,0,0,1,2.37-5.19q2.35-1.87,7-1.87h.41V381h-.69a8.23,8.23,0,0,0-2.36.29,4.13,4.13,0,0,0-1.61.81,3.12,3.12,0,0,0-.93,1.26A3.9,3.9,0,0,0,255,385a4.1,4.1,0,0,0,.19,1.22,3,3,0,0,0,.61,1,3,3,0,0,0,1.1.71,4.41,4.41,0,0,0,1.64.26,6,6,0,0,0,2.37-.56c.17-.06.35-.15.52-.23a14.21,14.21,0,0,0,3.43-2.54v-8.73a4.14,4.14,0,0,0-1.19-3.12,4.35,4.35,0,0,0-2.76-1.13,8.72,8.72,0,0,0-.9-.05,15.46,15.46,0,0,0-3.52.41,25.43,25.43,0,0,0-3.58,1.19V370c.46-.19,1-.35,1.55-.53s1.16-.31,1.79-.45,1.29-.23,2-.31a18,18,0,0,1,2.09-.12h.6a12.93,12.93,0,0,1,2.84.42,8.23,8.23,0,0,1,2.6,1.34,5.9,5.9,0,0,1,1.62,2.26A8.22,8.22,0,0,1,268.53,375.81Z"/><path class="cls-1" d="M290.11,369l-4.95,14.45L284,387l-1.07-3.42L277.54,369h-4.16l8.43,22a18.25,18.25,0,0,1-1.39,2.64,7.84,7.84,0,0,1-1.5,1.79,4.8,4.8,0,0,1-1.64,1,5.59,5.59,0,0,1-1.89.31c-.4,0-.79,0-1.15-.06s-.71-.08-1-.12V400l1,.06c.3,0,.63,0,1,0a10,10,0,0,0,3.77-.66,8.93,8.93,0,0,0,3.08-2.05,14.7,14.7,0,0,0,2.6-3.56,40.66,40.66,0,0,0,2.31-5.16L294.12,369Z"/><path class="cls-1" d="M312.32,369v14.59c-.67.88-1.28,1.62-1.82,2.21a11.27,11.27,0,0,1-1.51,1.38,5,5,0,0,1-1.35.73,4.43,4.43,0,0,1-1.31.21c-2.43,0-3.66-1.69-3.66-5.06V369H299v14.36c0,2.69.55,4.69,1.66,6a6.06,6.06,0,0,0,4.91,2,8.71,8.71,0,0,0,1.8-.19,6.4,6.4,0,0,0,1.69-.65,9,9,0,0,0,1.69-1.22,19.76,19.76,0,0,0,1.8-1.89l.13,3.55H316V369Z"/><path class="cls-1" d="M339,382.79a4.45,4.45,0,0,0-1.15-1.73,7.86,7.86,0,0,0-2.08-1.4,22.19,22.19,0,0,0-3.15-1.19c-1.14-.35-2.08-.67-2.79-1a7.59,7.59,0,0,1-1.67-.9,2.55,2.55,0,0,1-.83-.94,2.47,2.47,0,0,1-.21-1.07,2.37,2.37,0,0,1,.25-1.11,2.23,2.23,0,0,1,.82-.89,4.8,4.8,0,0,1,1.51-.61,11.53,11.53,0,0,1,2.31-.21,20.41,20.41,0,0,1,2.69.2,30.1,30.1,0,0,1,3.25.65v-3.4a24.44,24.44,0,0,0-3.14-.48c-1-.1-1.94-.15-2.76-.15a12.47,12.47,0,0,0-4.21.62,7.72,7.72,0,0,0-2.65,1.57,5.27,5.27,0,0,0-1.4,2,5.59,5.59,0,0,0-.41,2,5.41,5.41,0,0,0,.5,2.43,5.49,5.49,0,0,0,1.38,1.8,8.44,8.44,0,0,0,2.1,1.32,19.21,19.21,0,0,0,2.63,1c1.27.4,2.28.75,3,1.05a6.56,6.56,0,0,1,1.62.9,2.26,2.26,0,0,1,.73.88,2.88,2.88,0,0,1,.2,1.08,2.33,2.33,0,0,1-1.26,2.12,7.84,7.84,0,0,1-3.89.75,23.37,23.37,0,0,1-3.63-.29,27.8,27.8,0,0,1-3.68-.84v3.51a27.29,27.29,0,0,0,3.52.64,39.4,39.4,0,0,0,3.94.2,15.53,15.53,0,0,0,2-.16,12.26,12.26,0,0,0,2-.48,9.89,9.89,0,0,0,1.84-.84,6.38,6.38,0,0,0,1.52-1.21,5.28,5.28,0,0,0,1-1.63,5.48,5.48,0,0,0,.39-2.09A6.43,6.43,0,0,0,339,382.79Z"/><path class="cls-1" d="M361.58,370.6a6.09,6.09,0,0,0-4.88-2,7.47,7.47,0,0,0-1.78.2,6.36,6.36,0,0,0-1.7.66,9.82,9.82,0,0,0-1.66,1.18,15.92,15.92,0,0,0-1.69,1.81L350,369v-9h-3.66v31H350V376.39c.71-.88,1.35-1.61,1.88-2.19a12.18,12.18,0,0,1,1.53-1.39,4.78,4.78,0,0,1,1.33-.73,4.43,4.43,0,0,1,1.38-.21,3,3,0,0,1,2.6,1.26,6.43,6.43,0,0,1,.93,3.81v14h3.65V376.63Q363.3,372.6,361.58,370.6Z"/></svg>