<svg id="Layer_1" data-name="Layer 1" xmlns="http://www.w3.org/2000/svg" viewBox="0 0 432 432"><defs><style>.cls-1{fill:#31b5c2;}</style></defs><title>ayush</title><path class="cls-1" d="M238.47,368.89v22.46A179.69,179.69,0,0,1,60.13,234.1H82.81A157.23,157.23,0,0,0,238.47,368.89Z"/><path class="cls-1" d="M36.28,200.4v22.46H25.05a11.23,11.23,0,1,1,0-22.46Z"/><polygon class="cls-1" points="238.47 211.63 216 222.86 47.51 222.86 47.51 200.4 216 200.4 238.47 211.63"/><path class="cls-1" d="M418.19,211.63V380.12a11.24,11.24,0,0,1-22.47,0V211.63A157.26,157.26,0,0,0,82.81,189.17H60.14a179.73,179.73,0,0,1,358.05,22.46Z"/><path class="cls-1" d="M278.34,375.81V391h-3.28l-.09-3c-.1.1-.2.21-.31.3a10.76,10.76,0,0,1-3.18,2.26c-.25.11-.52.21-.78.3a9.2,9.2,0,0,1-3,.5,8.6,8.6,0,0,1-3.09-.49,5.84,5.84,0,0,1-2.11-1.32,5.09,5.09,0,0,1-1.21-2,7.57,7.57,0,0,1-.4-2.47,6.29,6.29,0,0,1,2.37-5.19c1.57-1.25,3.91-1.87,7-1.87h.41V381H270a8.19,8.19,0,0,0-2.36.29,4.13,4.13,0,0,0-1.61.81,3.06,3.06,0,0,0-.94,1.26,4.07,4.07,0,0,0-.31,1.64,3.8,3.8,0,0,0,.19,1.22,2.71,2.71,0,0,0,.61,1,2.87,2.87,0,0,0,1.1.71,4.35,4.35,0,0,0,1.63.26,6,6,0,0,0,2.37-.56c.18-.06.35-.15.53-.23a14.41,14.41,0,0,0,3.43-2.54v-8.73a4.14,4.14,0,0,0-1.2-3.12,4.35,4.35,0,0,0-2.76-1.13,8.42,8.42,0,0,0-.9-.05,15.59,15.59,0,0,0-3.52.41,25.86,25.86,0,0,0-3.58,1.19V370c.46-.19,1-.35,1.55-.53s1.16-.31,1.8-.45,1.28-.23,2-.31a17.87,17.87,0,0,1,2.08-.12h.6a12.93,12.93,0,0,1,2.85.42,6.39,6.39,0,0,1,1.11.43,5.83,5.83,0,0,1,1.48.91,6,6,0,0,1,1.63,2.26A8.41,8.41,0,0,1,278.34,375.81Z"/><path class="cls-1" d="M299.92,369,295,383.44,293.77,387l-1.08-3.42L287.35,369H283.2l8.42,22a17.31,17.31,0,0,1-1.39,2.64,8.08,8.08,0,0,1-1.49,1.79,4.75,4.75,0,0,1-1.65,1,5.55,5.55,0,0,1-1.89.31c-.39,0-.78,0-1.14-.06s-.71-.08-1-.12V400l1,.06c.3,0,.62,0,1,0a10,10,0,0,0,3.77-.66,8.75,8.75,0,0,0,3.08-2.05,14.7,14.7,0,0,0,2.6-3.56,39.3,39.3,0,0,0,2.31-5.16L303.94,369Z"/><path class="cls-1" d="M322.14,369v14.59c-.68.88-1.29,1.62-1.83,2.21a10.69,10.69,0,0,1-1.51,1.38,4.75,4.75,0,0,1-1.35.73,4.43,4.43,0,0,1-1.31.21q-3.64,0-3.65-5.06V369h-3.66v14.36c0,2.69.55,4.69,1.66,6a6.08,6.08,0,0,0,4.92,2,8.86,8.86,0,0,0,1.8-.19,6.34,6.34,0,0,0,1.68-.65,9,9,0,0,0,1.7-1.22,18.6,18.6,0,0,0,1.79-1.89l.13,3.55h3.28V369Z"/><path class="cls-1" d="M348.86,382.79a4.57,4.57,0,0,0-1.15-1.73,8.09,8.09,0,0,0-2.09-1.4,22,22,0,0,0-3.14-1.19c-1.15-.35-2.09-.67-2.8-1a7.83,7.83,0,0,1-1.67-.9,2.51,2.51,0,0,1-.82-.94,2.47,2.47,0,0,1-.22-1.07,2.5,2.5,0,0,1,.25-1.11,2.26,2.26,0,0,1,.83-.89,4.71,4.71,0,0,1,1.51-.61,11.45,11.45,0,0,1,2.31-.21,20.28,20.28,0,0,1,2.68.2,30.25,30.25,0,0,1,3.26.65v-3.4a24.85,24.85,0,0,0-3.15-.48q-1.52-.15-2.76-.15a12.37,12.37,0,0,0-4.2.62,7.87,7.87,0,0,0-2.66,1.57,5.5,5.5,0,0,0-1.4,2,5.81,5.81,0,0,0-.41,2,5.41,5.41,0,0,0,.5,2.43,5.77,5.77,0,0,0,1.38,1.8,8.44,8.44,0,0,0,2.1,1.32,19.72,19.72,0,0,0,2.63,1q1.92.6,3,1.05a6.75,6.75,0,0,1,1.62.9,2.15,2.15,0,0,1,.72.88,2.7,2.7,0,0,1,.2,1.08,2.33,2.33,0,0,1-1.26,2.12,7.79,7.79,0,0,1-3.88.75,23.37,23.37,0,0,1-3.63-.29A27.1,27.1,0,0,1,333,387v3.51a27,27,0,0,0,3.52.64,39.09,39.09,0,0,0,3.94.2,15.67,15.67,0,0,0,2-.16,12.51,12.51,0,0,0,2-.48,9.51,9.51,0,0,0,1.83-.84,6.24,6.24,0,0,0,1.53-1.21,5.44,5.44,0,0,0,1.41-3.72A6.69,6.69,0,0,0,348.86,382.79Z"/><path class="cls-1" d="M371.4,370.6a6.1,6.1,0,0,0-4.88-2,7.56,7.56,0,0,0-1.79.2,6.63,6.63,0,0,0-1.7.66,10.24,10.24,0,0,0-1.66,1.18,15,15,0,0,0-1.68,1.81l.12-3.45v-9h-3.65v31h3.65V376.39q1.08-1.32,1.89-2.19a12.91,12.91,0,0,1,1.52-1.39,4.69,4.69,0,0,1,1.34-.73,4.32,4.32,0,0,1,1.37-.21,3,3,0,0,1,2.61,1.26,6.51,6.51,0,0,1,.92,3.81v14h3.66V376.63C373.12,373.94,372.54,371.93,371.4,370.6Z"/></svg>